# xmcd CD database file
#
# Track frame offsets:
#	150
#	14320
#	27945
#	44380
#	59122
#	73602
#	90325
#	106580
#	121510
#	137032
#	154182
#	167522
#
# Disc length: 2413 seconds
#
# Revision: 1
# Processed by: cddbd v1.5.2PL0 Copyright (c) Steve Scherf et al.
# Submitted via: CDex 1.70beta2
#
DISCID=90096b0c
DTITLE=Édel Reis - No Coração Do Povão Vol.4
DYEAR=1990
DGENRE=Popular Brega
TTITLE0=O Corno Despeitado
TTITLE1=Cidadão No Brega
TTITLE2=Melô Da Pizza
TTITLE3=Saudade Não Avisou
TTITLE4=O Maior Abandonado
TTITLE5=Capa De Revista
TTITLE6=Vou Morar No Brega
TTITLE7=Vida De Corno
TTITLE8=Quero Mais Você Não Deixa
TTITLE9=Sonho De Garimpeiro
TTITLE10=Chorava, Chorava
TTITLE11=Mesa De Bar
EXTD=NO CORAÇÃO DO POVÃO É 10 !!! YEAR: 1990
EXTT0=
EXTT1=
EXTT2=
EXTT3=
EXTT4=
EXTT5=
EXTT6=
EXTT7=
EXTT8=
EXTT9=
EXTT10=
EXTT11=
PLAYORDER=
